<svg width="25" height="25" viewBox="0 0 25 25" fill="none" xmlns="http://www.w3.org/2000/svg">
<g clip-path="url(#clip0_144_104)">
<path d="M20.9202 5.55566H2.691C2.34567 5.55566 2.01448 5.6898 1.77029 5.92856C1.5261 6.16732 1.38892 6.49115 1.38892 6.82881V19.5603C1.38892 19.898 1.5261 20.2218 1.77029 20.4605C2.01448 20.6993 2.34567 20.8334 2.691 20.8334H20.9202C21.2655 20.8334 21.5967 20.6993 21.8409 20.4605C22.0851 20.2218 22.2222 19.898 22.2222 19.5603V6.82881C22.2222 6.49115 22.0851 6.16732 21.8409 5.92856C21.5967 5.6898 21.2655 5.55566 20.9202 5.55566ZM19.9176 19.5603H3.77173L8.32902 14.9515L7.39152 14.0667L2.691 18.8219V7.79641L10.7834 15.6708C11.0274 15.908 11.3574 16.041 11.7014 16.041C12.0454 16.041 12.3754 15.908 12.6194 15.6708L20.9202 7.59907V18.7391L16.1285 14.0539L15.2105 14.9515L19.9176 19.5603ZM3.54386 6.82881H19.8655L11.7014 14.7669L3.54386 6.82881Z" fill="#0D0D0D"/>
</g>
<defs>
<clipPath id="clip0_144_104">
<rect width="25" height="25" fill="white"/>
</clipPath>
</defs>
</svg>
