<svg width="11" height="11" viewBox="0 0 11 11" fill="none" xmlns="http://www.w3.org/2000/svg">
<path fill-rule="evenodd" clip-rule="evenodd" d="M5.5 0.083374C6.79293 0.083374 8.03291 0.596989 8.94715 1.51123C9.86139 2.42547 10.375 3.66544 10.375 4.95837C10.375 6.62346 9.46717 7.98629 8.51058 8.964C8.03257 9.44711 7.51109 9.88518 6.95275 10.2727L6.722 10.4297L6.61367 10.5018L6.40946 10.6318L6.22746 10.7428L6.00213 10.8739C5.84911 10.961 5.67607 11.0068 5.5 11.0068C5.32393 11.0068 5.15089 10.961 4.99788 10.8739L4.77254 10.7428L4.49088 10.5695L4.38687 10.5018L4.16479 10.3539C3.56245 9.94622 3.00133 9.48071 2.48942 8.964C1.53283 7.98575 0.625 6.62346 0.625 4.95837C0.625 3.66544 1.13861 2.42547 2.05285 1.51123C2.96709 0.596989 4.20707 0.083374 5.5 0.083374ZM5.5 1.16671C4.49439 1.16671 3.52996 1.56619 2.81889 2.27726C2.10781 2.98834 1.70833 3.95276 1.70833 4.95837C1.70833 6.21612 2.39733 7.32004 3.26346 8.20621C3.63592 8.58315 4.03844 8.92915 4.46704 9.24079L4.71513 9.41737C4.79529 9.47317 4.87221 9.52517 4.94642 9.57337L5.15767 9.70879L5.34346 9.822L5.5 9.91354L5.74646 9.76783L5.94525 9.64325C6.05088 9.57608 6.16463 9.50079 6.28488 9.41737L6.53296 9.24079C6.96156 8.92915 7.36408 8.58315 7.73654 8.20621C8.60267 7.32058 9.29167 6.21612 9.29167 4.95837C9.29167 3.95276 8.89219 2.98834 8.18111 2.27726C7.47004 1.56619 6.50561 1.16671 5.5 1.16671ZM5.5 2.79171C6.07464 2.79171 6.62574 3.01998 7.03206 3.42631C7.43839 3.83264 7.66667 4.38374 7.66667 4.95837C7.66667 5.53301 7.43839 6.08411 7.03206 6.49044C6.62574 6.89677 6.07464 7.12504 5.5 7.12504C4.92536 7.12504 4.37426 6.89677 3.96794 6.49044C3.56161 6.08411 3.33333 5.53301 3.33333 4.95837C3.33333 4.38374 3.56161 3.83264 3.96794 3.42631C4.37426 3.01998 4.92536 2.79171 5.5 2.79171ZM5.5 3.87504C5.21268 3.87504 4.93713 3.98918 4.73397 4.19234C4.5308 4.39551 4.41667 4.67106 4.41667 4.95837C4.41667 5.24569 4.5308 5.52124 4.73397 5.72441C4.93713 5.92757 5.21268 6.04171 5.5 6.04171C5.78732 6.04171 6.06287 5.92757 6.26603 5.72441C6.4692 5.52124 6.58333 5.24569 6.58333 4.95837C6.58333 4.67106 6.4692 4.39551 6.26603 4.19234C6.06287 3.98918 5.78732 3.87504 5.5 3.87504Z" fill="#0D0D0D"/>
</svg>
