<svg width="18" height="19" viewBox="0 0 18 19" fill="none" xmlns="http://www.w3.org/2000/svg">
<path d="M17.1036 12.5958L12.871 10.6992L12.8593 10.6938C12.6396 10.5999 12.3999 10.5621 12.1619 10.5841C11.924 10.6061 11.6952 10.687 11.4964 10.8196C11.473 10.8351 11.4505 10.8519 11.429 10.8699L9.24223 12.7342C7.85684 12.0613 6.42653 10.6417 5.7536 9.27431L7.62055 7.05427C7.63852 7.03181 7.65559 7.00935 7.67177 6.98509C7.80153 6.78681 7.88025 6.55952 7.90094 6.32346C7.92164 6.0874 7.88365 5.84988 7.79036 5.63204V5.62126L5.88837 1.38154C5.76505 1.09697 5.553 0.859918 5.28389 0.705767C5.01477 0.551616 4.70302 0.488635 4.39516 0.526224C3.17775 0.686422 2.06029 1.2843 1.25147 2.20819C0.442657 3.13207 -0.00219302 4.31879 8.12964e-06 5.54669C8.12964e-06 12.6803 5.80391 18.4842 12.9375 18.4842C14.1654 18.4864 15.3521 18.0415 16.276 17.2327C17.1999 16.4239 17.7978 15.3064 17.958 14.089C17.9956 13.7813 17.9328 13.4696 17.7788 13.2005C17.6248 12.9314 17.388 12.7193 17.1036 12.5958ZM12.9375 17.0467C9.88854 17.0434 6.9654 15.8307 4.80946 13.6747C2.65351 11.5188 1.44084 8.59566 1.43751 5.54669C1.43413 4.66936 1.75021 3.82079 2.32672 3.15946C2.90324 2.49813 3.70076 2.06926 4.57036 1.95294C4.57001 1.95653 4.57001 1.96014 4.57036 1.96372L6.45708 6.18638L4.60001 8.40912C4.58116 8.4308 4.56404 8.45393 4.5488 8.47829C4.4136 8.68576 4.33428 8.92463 4.31854 9.17176C4.3028 9.41889 4.35117 9.6659 4.45895 9.88884C5.27294 11.5536 6.95032 13.2185 8.63309 14.0315C8.85767 14.1383 9.10611 14.185 9.35413 14.1671C9.60215 14.1491 9.84127 14.0671 10.0481 13.9291C10.0712 13.9136 10.0934 13.8968 10.1146 13.8788L12.2987 12.0154L16.5214 13.9067H16.5313C16.4164 14.7775 15.9881 15.5766 15.3267 16.1546C14.6652 16.7325 13.8159 17.0497 12.9375 17.0467Z" fill="#0D0D0D"/>
</svg>
