<svg width="13" height="13" viewBox="0 0 13 13" fill="none" xmlns="http://www.w3.org/2000/svg">
<path d="M6.09375 0.40625C4.88852 0.40625 3.71036 0.763642 2.70825 1.43323C1.70613 2.10282 0.925083 3.05454 0.463862 4.16802C0.00264033 5.28151 -0.118036 6.50676 0.117092 7.68883C0.352221 8.8709 0.932595 9.95671 1.78482 10.8089C2.63705 11.6612 3.72285 12.2415 4.90492 12.4767C6.08699 12.7118 7.31224 12.5911 8.42573 12.1299C9.53922 11.6687 10.4909 10.8876 11.1605 9.88551C11.8301 8.88339 12.1875 7.70523 12.1875 6.5C12.1858 4.88436 11.5432 3.33538 10.4008 2.19295C9.25837 1.05052 7.70939 0.407956 6.09375 0.40625ZM6.09375 11.6562C5.07394 11.6562 4.07703 11.3538 3.22909 10.7873C2.38115 10.2207 1.72026 9.41539 1.33 8.47321C0.939734 7.53103 0.837624 6.49428 1.03658 5.49407C1.23553 4.49385 1.72662 3.5751 2.44773 2.85398C3.16885 2.13287 4.0876 1.64178 5.08782 1.44283C6.08803 1.24387 7.12478 1.34598 8.06696 1.73625C9.00915 2.12651 9.81444 2.7874 10.381 3.63534C10.9476 4.48328 11.25 5.48019 11.25 6.5C11.2485 7.86705 10.7047 9.17766 9.73806 10.1443C8.77141 11.111 7.4608 11.6547 6.09375 11.6562ZM9.84375 6.5C9.84375 6.62432 9.79437 6.74355 9.70646 6.83146C9.61855 6.91936 9.49932 6.96875 9.375 6.96875H6.09375C5.96943 6.96875 5.8502 6.91936 5.7623 6.83146C5.67439 6.74355 5.625 6.62432 5.625 6.5V3.21875C5.625 3.09443 5.67439 2.9752 5.7623 2.88729C5.8502 2.79939 5.96943 2.75 6.09375 2.75C6.21807 2.75 6.3373 2.79939 6.42521 2.88729C6.51312 2.9752 6.5625 3.09443 6.5625 3.21875V6.03125H9.375C9.49932 6.03125 9.61855 6.08064 9.70646 6.16854C9.79437 6.25645 9.84375 6.37568 9.84375 6.5Z" fill="#0D0D0D"/>
</svg>
